<?xml version="1.0" encoding="UTF-8"?>
<svg id="Layer_2" data-name="Layer 2" xmlns="http://www.w3.org/2000/svg" viewBox="0 0 70.05 36.94">
  <defs>
    <style>
      .cls-1 {
        fill: #1c75bc;
      }
    </style>
  </defs>
  <g id="Layer_1-2" data-name="Layer 1">
    <g>
      <path class="dark:fill-#eee dark:stroke-#eee" d="M34.13,1.94c-1.39-1.3-3.19-1.94-5.4-1.94-1.68,0-3.28.34-4.79,1.01-1.51.67-2.92,1.46-4.21,2.38-1.3.91-2.46,1.87-3.49,2.88-1.03,1.01-1.88,1.82-2.56,2.45,0-.38.02-.85.07-1.4.05-.55.08-1.12.11-1.69.02-.58.05-1.13.07-1.66.02-.53.04-1.01.04-1.44,0-.91-.2-1.54-.61-1.87-.41-.33-.9-.5-1.48-.5-.86,0-1.97.3-3.31.9-1.34.6-2.64,1.26-3.89,1.98-1.25.72-2.33,1.39-3.24,2.02-.91.62-1.39.96-1.44,1.01v.5c0,.34.14.48.43.43.24-.05.49-.11.76-.18.26-.07.59-.11.97-.11.91,0,1.79.62,2.63,1.87.84,1.25,1.26,3.19,1.26,5.83s-.02,5.06-.07,6.98c-.05,1.92-.11,3.62-.18,5.11-.07,1.49-.19,2.87-.36,4.14-.17,1.27-.35,2.65-.54,4.14-.05.19-.12.42-.22.68-.1.26-.14.42-.14.47,0,.24.23.46.68.65.46.19,1.09.29,1.91.29.77,0,1.7-.17,2.81-.5,1.1-.34,2.18-.72,3.24-1.15,1.06-.43,1.99-.85,2.81-1.26.82-.41,1.32-.71,1.51-.9.14-.1.17-.33.07-.72-.1-.38-.26-.53-.5-.43-.19.1-.55.14-1.08.14s-.96-.13-1.3-.4c-.34-.26-.62-.74-.86-1.44-.24-.7-.41-1.64-.5-2.84-.1-1.2-.14-2.71-.14-4.54,0-1.39.05-2.63.14-3.71.1-1.08.19-2.12.29-3.13.24-2.21.73-3.91,1.48-5.11.74-1.2,1.64-2.21,2.7-3.02.53-.38,1.18-.71,1.94-.97.77-.26,1.63-.4,2.59-.4,1.63,0,2.92.42,3.85,1.26.94.84,1.64,1.87,2.12,3.1.48,1.22.78,2.53.9,3.92.12,1.39.18,2.66.18,3.82,0,2.21-.05,4.26-.14,6.16-.1,1.9-.21,3.56-.32,5-.12,1.44-.25,2.62-.4,3.53-.14.91-.29,1.49-.43,1.73-.19.38-.29.72-.29,1.01,0,.24.28.44.83.61.55.17,1.16.25,1.84.25.53,0,1.32-.14,2.38-.43,1.06-.29,2.14-.62,3.24-1.01,1.1-.38,2.11-.8,3.02-1.26.91-.46,1.49-.83,1.73-1.12.19-.29.22-.55.07-.79-.1-.14-.19-.26-.29-.36-.29.05-.48.08-.58.11-.1.02-.34.04-.72.04-1.1,0-1.88-.55-2.34-1.66-.46-1.1-.68-3.07-.68-5.9,0-1.06.01-1.97.04-2.74.02-.77.05-1.46.07-2.09.02-.62.05-1.2.07-1.73.02-.53.06-1.06.11-1.58l-.22-7.63c-.1-3.22-.84-5.47-2.23-6.77Z"/>
      <path class="cls-1" d="M69.98,29.99c-.05-.17-.14-.25-.29-.25h-.07c-.19.14-.5.3-.94.47-.43.17-.91.34-1.44.5-.53.17-1.06.31-1.58.43-.53.12-1.01.18-1.44.18-2.64,0-3.96-2.5-3.96-7.49,0-1.1.05-2.33.14-3.67.1-1.34.22-2.7.36-4.07.14-1.37.26-2.67.36-3.92.1-1.25.14-2.35.14-3.31,0-5.9-2.78-8.86-8.35-8.86-1.58,0-3.14.31-4.68.94-1.54.62-2.99,1.39-4.36,2.3-1.37.91-2.6,1.87-3.71,2.88-1.1,1.01-2.04,1.87-2.81,2.59l.14,5.04c.9-1.81.59-1.14,1.19-2.41.6-1.27,1.43-2.31,2.48-3.13.58-.43,1.25-.83,2.02-1.19.77-.36,1.7-.54,2.81-.54,1.2,0,2.26.2,3.17.61.91.41,1.68,1.12,2.3,2.12.62,1.01,1.1,2.36,1.44,4.07.34,1.7.5,3.85.5,6.44,0,2.21-.06,4.22-.18,6.05-.12,1.82-.23,3.43-.32,4.82-.1,1.1-.2,2.04-.32,2.81-.12.77-.23,1.34-.32,1.73-.1.62.16,1.08.76,1.37.6.29,1.24.43,1.91.43.77,0,1.91-.25,3.42-.76,1.51-.5,3.05-1.08,4.61-1.73,1.56-.65,2.98-1.28,4.25-1.91,1.27-.62,2.08-1.03,2.41-1.22.1-.1.19-.18.29-.25.1-.07.14-.23.14-.47s-.02-.44-.07-.61Z"/>
    </g>
  </g>
</svg>
