<?xml version="1.0" encoding="UTF-8"?>
<svg id="Layer_2" data-name="Layer 2" xmlns="http://www.w3.org/2000/svg" viewBox="0 0 124.36 13.43">
  <defs>
    <style>
      .cls-1 {
        fill: #1c75bc;
      }
    </style>
  </defs>
  <g id="Layer_1-2" data-name="Layer 1">
    <g>
      <path class="cls-1" d="M14.96,6.67c.1,0,.23-.08.34-.09.14-.03.22-.08.36-.13.2-.08.41-.16.41-.16l.26-.11c.18-.06.3-.15.4-.15.07,0,.14.03.14.11,0,.05-.28.18-.42.24,0,0-.19.09-.31.14-.24.09-.2.09-.36.16,0,0-.06.04-.28.11-.22.08-.29.13-.55.21-.28.08-.55.23-.84.29-.25.06-.47.12-.66.16-.18.04-.38.1-.56.15-.18.05-.34.09-.47.09-.05,0-.1,0-.13-.02-.24-.09-.4-.15-.43-.43-.01-.07-.02-.17-.02-.27,0-.08,0-.16.02-.25.02-.09.05-.42.17-.58.19-.27.28-.43.28-.5,0-.05-.04-.07-.1-.07-.14,0-.42.1-.72.18l-.65.32c-.19.08-.4.21-.66.34-.16.08-.46.34-.62.41-.23.09-.41.27-.84.45-.43.18-.6.22-1.08.22-.08,0-.19-.13-.19-.22,0-.33.26-.59.62-.83.25-.17.59-.35.74-.48.16-.13.31-.34.49-.53.18-.19.38-.39.6-.54.22-.15.31-.32.31-.47,0-.09.01-.14.01-.21,0-.12-.07-.21-.31-.21-.25,0-.85.1-1.22.29-.23.12-.66.29-1.04.44-.36.14-.59.26-.68.33-.06.05-.3.15-.52.27l-.85.49c-.3.17-.55.35-.64.42-.12.09-.41.32-.66.43-.23.09-.37.22-.56.35-.23.17-.37.24-.71.43-.23.14-.46.26-.64.3-.12.03-.47.05-.56.05-.24,0-.44-.1-.44-.3v-.11c.02-.24.18-.32.41-.45l.43-.21c.22-.09.36-.18.56-.32.17-.11.47-.27.72-.47s.48-.32.84-.56c.43-.28.5-.43.89-.67.4-.26.37-.32.7-.57.35-.26.41-.41.67-.59.19-.13.53-.44.53-.44.24-.21.4-.38.7-.55.19-.1.49-.44.49-.62,0-.09-.06-.15-.22-.15-.11,0-.25,0-.46.07-.24.05-.4.03-.65.13-.24.1-.44.1-.72.18-.3.09-.65.14-.86.25-.18.09-.28.1-.67.24-.46.15-.37.09-.67.24s-.2.07-.62.28c-.37.19-.61.3-.77.39s-.31.21-.6.36c-.29.15-.47.26-.68.43-.12.09-.35.24-.49.37-.18.16-.3.26-.44.42-.13.14-.23.26-.32.27-.12,0-.13-.05-.13-.12,0-.14.1-.19.37-.48.13-.14.22-.26.47-.43.14-.1.3-.31.56-.44.19-.1.35-.26.53-.39.16-.1.34-.21.48-.31.26-.19.32-.19.56-.3.22-.09.11-.09.5-.27.18-.09.36-.14.54-.23.22-.09.42-.15.61-.24.24-.1.55-.23.68-.27.37-.14.38-.14.76-.24.17-.04.35-.11.71-.18.42-.08.56-.15.91-.26.37-.11.48-.13.79-.21.29-.07.54-.15.77-.24.26-.09.49-.17.72-.17.43,0,.49,0,.49.3,0,.16.06.2.06.26,0,.05-.06.28-.19.45-.3.38-.16.21-.41.46-.2.21-.48.35-.7.57-.23.25-.34.21-.58.4s-.31.23-.52.36c-.11.08-.55.4-.55.57,0,.07.07.11.26.11.1,0,.13-.03.29-.07.29-.08.53-.2.74-.29.46-.19.78-.31,1.07-.44.23-.09.64-.24.95-.35.31-.11.61-.2.71-.2.07,0,.14,0,.19,0,.06,0,.11.04.16.24.02.09.02.16.02.23,0,.19-.07.35-.22.61-.2.34-.2.31-.54.7-.12.14-.26.27-.41.4-.26.23-.52.42-.61.55-.1.11-.19.23-.19.29,0,.03.02.05.07.05.02,0,.05,0,.07,0,.1-.02.25-.07.43-.14l.54-.22c.23-.09.43-.15.73-.29.2-.09.53-.26.8-.32.48-.12.31-.15.71-.28.22-.07.37-.12.5-.18.25-.11.43-.12.55-.12.1,0,.18.07.18.16,0,.1.05.16.05.22,0,.07-.05.13-.26.29-.38.33-.4.36-.65.6-.18.17-.32.43-.38.6-.05.12-.13.37-.13.54,0,.08.02.12.06.16.06.06.19.1.3.1s.36-.02.4-.02c.07,0,.37-.06.59-.1.17-.02.29-.08.4-.09Z"/>
      <path class="cls-1" d="M20.91,7.32c-.06,0-.23,0-.26,0-.22,0-.47-.09-.71-.24-.24-.16-.16-.26-.41-.26-.23,0-.25.09-.46.16-.19.1-.47.11-.72.22s-.52.19-.79.26c-.29.07-.49.08-.67.08-.36,0-.64-.12-.71-.33-.04-.1-.05-.15-.05-.21s.01-.17.05-.26c.08-.21.18-.45.38-.6.36-.25.46-.31.91-.52.42-.19.47-.23.97-.49.47-.26.78-.42,1.21-.57.29-.1.61-.26.73-.26.06,0,.12,0,.23.04.22.07.32.13.32.22,0,.03-.01.07-.04.09-.05.16-.41.26-.78.46-.38.2-.2.23-.7.4-.5.18-.56.26-.83.36-.11.05-.16.1-.16.14,0,.06.07.09.18.12.07.02.13.03.2.03.13,0,.29-.04.62-.16.53-.21.26-.26.6-.41.36-.15.79-.62,1.2-.62.3,0,.3.05.3.14,0,.03,0,.07.01.1.01.05.01.09.01.12,0,.09-.28.28-.41.38-.17.15-.2.09-.36.32,0,0-.06.14-.06.28,0,.06.01.11.04.16.07.19.61.24.7.24.31,0,.47-.04.66-.09.22-.08.4-.09.58-.17,0,0,.13-.05.31-.1.17-.06.37-.16.53-.22.16-.06.16-.09.25-.09.07,0,.14.03.14.11-.01.04-.01.14-.16.2,0,0-.11.07-.23.12-.24.09-.25.12-.6.25-.34.12-.97.34-1.07.39-.13.06-.22.09-.32.11-.28.03-.41.11-.67.11Z"/>
      <path class="cls-1" d="M29.68,6.52c-.18.09-.44.19-.67.27-.19.08-.37.15-.52.19-.22.06-.34.1-.47.16-.12.05-.26.04-.49.09-.47.11-.74.16-1.09.16-.2,0-.44,0-.6,0-.11,0-.25,0-.41-.16-.16-.16-.38-.22-.38-.51s0-.26.2-.54c.18-.26.3-.32.48-.44.16-.11.4-.16.4-.28,0,0-.01-.03-.01-.04-.04-.09-.11-.1-.18-.1-.05,0-.1.03-.16.04-.1.02-.28.11-.49.24-.13.08-.3.14-.43.23-.19.11-.35.16-.43.21-.25.14-.48.25-.66.33-.22.1-.36.18-.41.18s-.16,0-.16-.09c0-.03.01-.08.04-.1.14-.16.23-.18.52-.31.29-.13.2-.12.56-.28.08-.04.36-.21.52-.34.13-.11.22-.14.3-.19.14-.08.14-.17.4-.28s.26-.27.52-.36c.32-.13.4-.35.82-.35.05,0,.11,0,.17,0,.56.07.83.02.83.28v.06c-.04.26-.14.15-.14.38,0,.03.01.07.01.24,0,.27-.07.44-.34.56-.29.15-.35.06-.59.31-.13.14-.17.26-.17.39,0,.09.02.12.06.19.05.12.31.17.61.17.13,0,.26,0,.36-.03.1-.02.44-.08.6-.12.31-.09.46-.12.68-.19.11-.04.32-.11.54-.2.28-.11.55-.24.6-.24.04,0,.14.03.14.13,0,.14-.22.2-.55.37Z"/>
      <path class="cls-1" d="M37.82,6.46c-.24.09-.28.1-.6.25l-.37.16c-.42.18-.96.36-1.2.38-.35.05-.52.08-.86.08-.32,0-.76-.27-.97-.36-.13-.05-.54-.16-.66-.16-.07,0-.16.03-.3.1l-.38.26c-.18.13-.43.33-.65.45-.19.1-.4.19-.56.24-.4.09-.61.22-.91.22-.12,0-.23-.02-.34-.07-.2-.1-.32-.25-.32-.41,0-.12.07-.26.23-.4.17-.14.34-.27.5-.4.2-.15.42-.29.68-.45.3-.18.55-.36.86-.57.2-.13.42-.28.68-.44.28-.17.44-.29.6-.41.13-.09.24-.19.4-.33l.43-.37c.18-.16.38-.31.58-.45l.64-.46c.24-.18.4-.31.41-.37v-.04c0-.07-.01-.12-.1-.12-.06,0-.14.04-.26.12-.28.21-.52.43-.88.65-.36.23-.26.23-.6.45-.34.23-.35.3-.53.4l-.37.24s-.23.14-.4.26c0,0-.3.23-.64.43-.2.13-.47.29-.66.39-.18.09-.26.17-.4.23-.18.08-.19.09-.41.21-.16.09-.28.11-.41.19-.25.14-.37.18-.41.18-.11,0-.16-.04-.16-.09,0-.05.02-.17.31-.3.35-.16.41-.19.59-.28,0,0,.4-.22.59-.33.3-.17.4-.28.64-.41.26-.13.48-.32.53-.34.3-.18.26-.21.46-.32.19-.11.3-.22.55-.41.3-.22.24-.19.6-.45.36-.26.54-.44.73-.59.31-.23.41-.36.67-.57l.54-.44c.24-.19.38-.35.5-.45.13-.1.22-.23.44-.37.29-.19.74-.58,1.09-.58.16,0,.3.09.38.32.08.17.17.21.17.31,0,.07-.05.15-.18.31-.14.18-.3.36-.47.54-.24.26-.5.49-.73.69-.17.15-.32.29-.47.43-.19.18-.35.36-.5.51-.28.28-.38.43-.67.67-.25.21-.67.5-.67.63,0,.14.02.19.16.19.04,0,.1,0,.16,0,.06,0,.14-.03.29-.1.25-.14.4-.23.56-.33l.34-.19c.28-.15.42-.26.59-.26.07,0,.14.02.23.06.13.07.18.14.18.22,0,.09-.07.19-.16.27-.07.07-.18.17-.32.28-.16.12-.34.25-.54.33-.36.15-.64.04-.82.32-.1.17-.23.35-.23.46,0,.08.01.22.13.3.07.06.16.13.42.13.19,0,.41,0,.66-.05.11-.02.22-.05.36-.09l.32-.09s.18-.07.36-.12c.17-.06.37-.16.53-.22.16-.06.16-.09.25-.09.07,0,.14.03.14.11-.01.04-.01.14-.16.2,0,0-.11.07-.23.12Z"/>
      <path class="cls-1" d="M43.14,7.39c-.38.12-.73.12-.9.12-.29,0-.62-.09-.62-.38,0-.08.01-.15.01-.22,0-.09-.04-.17-.19-.17-.55,0-.71.19-1.02.31-.43.16-.74.25-1.14.38-.4.13-.37.11-.71.2-.19.06-.47.1-.73.1-.42,0-.84-.11-.92-.44,0-.2.02-.57.16-.66.16-.1.29-.36.68-.52.54-.22.49-.28.77-.44.3-.17.46-.42.66-.56.26-.17.18-.19.5-.41.31-.22.19-.17.48-.37.18-.13.52-.26.6-.26.29,0,.41.23.41.39,0,.07-.02.14-.06.22-.17.33-.12.22-.32.43-.18.19-.32.22-.6.45s-.38.24-.55.4c-.22.21-.31.2-.31.41.04.09.1.15.28.15.3,0,.94-.16,1.07-.24.36-.2.72-.3.98-.43.29-.12.65-.56.94-.78,0,0,.42-.32.85-.32.04,0,.07,0,.11,0,.23.03.34.26.34.35,0,.08-.11.29-.25.43-.17.15-.6.52-.6.71v.19c0,.12.01.26.26.32.06,0,.1.02.13.02.28,0,.5-.09.83-.17.2-.05.44-.14.56-.17,0,0,.17-.06.35-.11.17-.06.36-.16.52-.22.16-.06.19-.09.28-.09.05,0,.13.05.13.13,0,.06-.04.12-.16.18,0,0-.16.08-.28.13-.3.13-.5.26-.86.38-.12.04-.23.09-.34.13-.12.05-.48.14-.64.21-.41.16-.3.09-.68.21Z"/>
      <path class="cls-1" d="M50.8,6.33c.17-.06.37-.16.53-.22.16-.06.16-.09.25-.09.07,0,.14.03.14.11-.01.04-.01.14-.16.2,0,0-.11.07-.23.12-.24.09-.28.09-.6.25l-.24.09c-.34.13-.42.17-.74.27-.32.1-.6.21-.84.27-.58.16-.56.11-.89.18l-.5.13c-.35.08-.56.09-.88.09-.17,0-.31-.06-.4-.14-.12-.13-.18-.14-.18-.22,0-.07.05-.33.12-.44.17-.26.55-.52.77-.53.23-.04.47-.19.71-.19s.44-.1.65-.14c.19-.02.53-.09.7-.42.13-.26.18-.43.18-.54,0-.03-.02-.07-.11-.07-.23,0-.17.03-.53.2-.18.09-.34.14-.54.26-.2.11-.58.27-.79.33-.23.07-.38.14-.71.29-.24.1-.46.16-.58.22-.17.09-.38.18-.46.18-.08,0-.14-.03-.14-.09,0-.14.16-.25.46-.37.25-.1.37-.21.61-.32.31-.15.62-.35.84-.47.5-.28.58-.4.89-.55.32-.16.54-.32.88-.53.31-.2.79-.37,1-.38.19,0,.55.13.55.38,0,.04,0,.32-.07.43s-.13.25-.2.39c-.13.26-.4.51-.47.61-.12.17-.42.37-.52.47-.1.1-.4.31-.4.47,0,.09.16.11.26.11h.08c.11,0,.4-.03.53-.05.2-.05.5-.12.66-.18,0,0,.18-.07.36-.12Z"/>
      <path class="cls-1" d="M59.83,4.79c-.42,0-.65-.15-.82-.32-.12-.11-.13-.22-.13-.31v-.12c.01-.08.05-.2.1-.32.05-.09.1-.2.16-.28l.24-.3c.07-.09.14-.17.22-.24.16-.15.29-.24.38-.34.05-.06.17-.14.29-.26.11-.09.24-.19.32-.26.17-.15.23-.17.32-.27.13-.13.28-.19.4-.29.12-.1.31-.18.46-.18.05,0,.13.13.13.17,0,.1-.2.17-.31.28-.11.13-.18.17-.29.28s-.3.25-.36.34l-.24.26c-.08.09-.18.21-.2.29-.06.2-.14.23-.23.42-.08.21-.11.3-.11.47,0,.15.01.38.29.38.19,0,.31-.05.58-.09.17-.03.32-.05.43-.09s.49-.11.79-.25.58-.19.97-.75c.19-.26.44-.77.78-.99.16-.1.38-.42.6-.57.32-.24.37-.29.67-.5.18-.12.49-.23.7-.37.23-.17.47-.17.67-.29.19-.09.47-.13.65-.19.3-.09.42-.09.61-.09.16,0,.42.04.42.21,0,.05-.01.19-.02.25-.07.26-.02.34-.23.58-.2.22-.25.31-.64.6-.13.11-.36.29-.55.43-.36.25-.74.46-.85.52-.16.09-.48.22-.91.45-.5.27-.71.31-1.12.7-.05.07-.1.14-.12.2-.1.24-.46.77-.65.98-.18.2-.38.46-.66.66-.22.15-.38.3-.8.53-.42.23-.73.19-.76.37-.01.04-.01.08-.01.11,0,.11.17.25.29.29.08.04.26.12.48.12l.37.02c.47,0,.95-.16,1.14-.18.18-.02.47-.14.62-.17s.35-.12.59-.2c.14-.05.26-.1.47-.19.18-.06.28-.12.4-.17.16-.06.16-.09.25-.09.07,0,.14.03.14.11-.01.04-.01.14-.16.2,0,0-.11.07-.23.12-.24.09-.25.12-.44.19s-.35.16-.4.18c-.17.06-.26.09-.41.15-.23.08-.43.13-.78.26-.3.09-.66.18-.8.22-.41.1-.61.09-1.04.21-.26.07-.55.07-.84.07-.18,0-.29-.04-.65-.14s-.28-.46-.6-.46c-.17,0-.37.13-.94.14-.23,0-.6-.07-.77-.2-.05-.04-.13-.18-.13-.43s.19-.68.3-.77c.13-.13.16-.21.31-.33.2-.16.74-.26,1.15-.26.47,0,.8.35,1.06.4h.1c.11,0,.23,0,.42-.11.42-.23.34-.17.58-.37.2-.17.32-.22.6-.52.17-.19.17-.29.17-.35,0-.03-.02-.05-.07-.05-.06,0-.12.05-.28.09-.34.13-.26.06-.55.18-.25.1-.44.09-.65.16-.3.09-.41.1-.86.1ZM66.58,1.37s-.05-.07-.12-.07c-.13,0-.29.07-.47.14-.38.16-.31.17-.66.4-.31.22-.28.21-.53.45-.13.13-.19.22-.19.27,0,.05.05.07.11.07.08,0,.17-.04.31-.09.25-.12.31-.17.53-.29.22-.11.16-.09.37-.23q.23-.15.38-.28c.22-.19.26-.3.26-.37Z"/>
      <path class="cls-1" d="M69.79,7.32c-.06,0-.23,0-.26,0-.22,0-.47-.09-.71-.24-.24-.16-.16-.26-.41-.26-.23,0-.25.09-.46.16-.19.1-.47.11-.72.22s-.52.19-.79.26c-.29.07-.49.08-.67.08-.36,0-.64-.12-.71-.33-.04-.1-.05-.15-.05-.21s.01-.17.05-.26c.08-.21.18-.45.38-.6.36-.25.46-.31.91-.52.42-.19.47-.23.97-.49.47-.26.78-.42,1.21-.57.29-.1.61-.26.73-.26.06,0,.12,0,.23.04.22.07.32.13.32.22,0,.03-.01.07-.04.09-.05.16-.41.26-.78.46-.38.2-.2.23-.7.4-.5.18-.56.26-.83.36-.11.05-.16.1-.16.14,0,.06.07.09.18.12.07.02.13.03.2.03.13,0,.29-.04.62-.16.53-.21.26-.26.6-.41.36-.15.79-.62,1.2-.62.3,0,.3.05.3.14,0,.03,0,.07.01.1.01.05.01.09.01.12,0,.09-.28.28-.41.38-.17.15-.2.09-.36.32,0,0-.06.14-.06.28,0,.06.01.11.04.16.07.19.61.24.7.24.31,0,.47-.04.66-.09.22-.08.4-.09.58-.17,0,0,.13-.05.31-.1.17-.06.37-.16.53-.22.16-.06.16-.09.25-.09.07,0,.14.03.14.11-.01.04-.01.14-.16.2,0,0-.11.07-.23.12-.24.09-.25.12-.6.25-.34.12-.97.34-1.07.39-.13.06-.22.09-.32.11-.28.03-.41.11-.67.11Z"/>
      <path class="cls-1" d="M77.07,6.86c-.19.07-.62.22-.62.22-.26.1-1.22.27-1.52.36-.28.08-.67.08-.92.08-.35,0-.8,0-1.04-.05-.29-.05-.48-.13-.55-.3-.06-.19-.16-.34-.16-.55,0-.14.05-.41.32-.57.54-.32.59-.55,1.01-.74.42-.19.46-.24.83-.45.37-.22.92-.42,1.26-.52.2-.07.5-.09.5-.09.34,0,.49.14.49.25,0,.19-.25.12-.74.41s-.53.26-.85.46c-.32.21-.79.55-.79.75,0,.09-.04.24-.04.3,0,.11.12.22.36.27.2.05.67.08.74.08.12,0,.47-.05.68-.06.3-.02.49-.09.6-.1.18-.03.35-.07.6-.15,0,0,.18-.07.36-.12.17-.06.37-.16.53-.22.16-.06.16-.09.25-.09.07,0,.14.03.14.11-.01.04-.01.14-.16.2,0,0-.11.07-.23.12-.24.09-.25.12-.6.25l-.46.16Z"/>
      <path class="cls-1" d="M79.09,5.99l-.25.11c-.3.15-.38.17-.52.25-.17.09-.35.18-.41.18-.11,0-.16-.04-.16-.09,0-.05.02-.17.31-.3.35-.16.41-.2.59-.29.25-.13.38-.22.55-.3.26-.14.43-.25.89-.52.16-.09.5-.3.67-.43.17-.13.38-.26.48-.33.12-.09.23-.17.31-.25.19-.16.43-.37.62-.51.19-.14.42-.34.7-.59.25-.23.38-.36.59-.56.2-.24.28-.26.44-.47s.17-.31.17-.39c0-.26-.23-.26-.23-.46,0-.25.25-.3.43-.39.28-.12.67-.25.92-.29.23-.04.46-.09.67-.09.04,0,.08,0,.12,0,.18.03.24.11.24.24,0,.05-.01.09-.02.15-.05.21-.26.48-.42.67-.2.24-.29.37-.62.69s-.41.38-.61.6c-.26.26-.63.59-.93.82-.22.16-.3.25-.48.37-.26.19-.38.28-.6.46-.3.26-.3.23-.53.43-.23.21-.36.3-.36.39,0,.03.02.05.18.05.37-.03.5-.08.86-.23.36-.15.6-.34.98-.34.14,0,.26.05.34.05.12,0,.25.17.25.27,0,.24-.11.56-.26.77l-.24.33c-.11.16-.31.39-.31.51,0,.08,0,.14.06.19.12.09.16.1.34.1.07,0,.36-.03.59-.09l.55-.13c.13-.03.25-.09.41-.13,0,0,.18-.07.36-.12.17-.06.37-.16.53-.22.16-.06.16-.09.25-.09.07,0,.14.03.14.11-.01.04-.01.14-.16.2,0,0-.11.07-.23.12-.24.09-.28.09-.6.25-.11.05-.23.11-.37.17-.12.05-.24.14-.52.24-.28.09-.32.16-.74.31-.23.09-.29.09-.43.13-.29.09-.58.18-.8.2-.2.02-.48.02-.59.02-.08,0-.22-.03-.32-.14-.12-.15-.19-.24-.19-.36,0-.06.04-.15.08-.21.18-.2.41-.35.53-.55.1-.15.17-.27.17-.42,0-.36-.26-.37-.67-.38-.37,0-.88.26-1.06.4-.16.12-.35.27-.59.43-.25.17-.19.23-.37.32-.18.09-.26.27-.42.4-.17.13-.16.2-.34.27-.2.09-.31.17-.49.17-.17,0-.59-.13-.59-.31,0-.26.16-.39.44-.66s.77-.61.77-.61c.1-.08.14-.14.14-.18,0-.02,0-.03-.05-.03l-.2.08Z"/>
      <path class="cls-1" d="M86.09,6.74c0-.23.07-.43.16-.53.1-.11.16-.14.38-.26.23-.11.49-.27.74-.4.38-.19.66-.46.91-.59.24-.12.53-.43.77-.43.22,0,.29.05.43.17.11.09.22.25.22.38,0,.04,0,.09-.02.12-.1.13-.17.16-.4.36-.23.2-.64.39-.78.56-.1.11-.14.29-.14.34,0,.06.02.12.08.17.17.11.4.12.73.12.16,0,.61-.05.61-.05.3-.03.49-.09.6-.1.18-.03.35-.07.6-.15,0,0,.18-.07.36-.12.17-.06.37-.16.53-.22.16-.06.16-.09.25-.09.07,0,.14.03.14.11-.01.04-.01.14-.16.2,0,0-.11.07-.23.12-.24.09-.25.12-.6.25l-.46.16c-.19.07-.62.22-.62.22-.23.09-1.01.24-1.39.33-.17.04-.56.07-.72.07-.13,0-.4,0-.48,0-1.28,0-1.52-.41-1.52-.75ZM92.74,1.99c-.04.23-.11.46-.44.49-.08.02-.18.02-.26.02-.26,0-.5-.04-.67-.12-.17-.1-.35-.16-.35-.38,0-.04.01-.1.04-.18.11-.4.61-.57.78-.57.2,0,.37.12.58.25.19.09.34.25.34.45v.04Z"/>
      <path class="cls-1" d="M102.25,6.59c.2-.04.4-.1.52-.13,0,0,.18-.07.36-.12.17-.06.37-.16.53-.22.16-.06.16-.09.25-.09.07,0,.14.03.14.11-.01.04-.01.14-.16.2,0,0-.11.07-.23.12-.24.09-.28.09-.6.25,0,0-.25.09-.43.16-.23.09-.48.14-.59.18-.29.1-.41.09-.67.18-.28.09-.4.14-.58.14-.11,0-.29.07-.49.07-.13,0-.52.05-.66.05-.43,0-.76-.12-.9-.31-.11-.12-.13-.23-.13-.32,0-.2.11-.4.11-.6,0-.06-.07-.07-.13-.07-.07,0-.17.03-.29.06-.43.09-.48.19-1.03.34-.26.08-.46.13-.61.19-.17.06-.28.09-.43.13-.16.03-.41.11-.68.21-.23.08-.48.16-.73.21-.25.07-.29.09-.55.17-.29.09-.6.14-.95.14-.19,0-.34-.04-.43-.09-.14-.07-.2-.17-.2-.26,0-.07.02-.11.07-.16.14-.14.24-.28.4-.43.1-.1.43-.49.43-.62,0-.07-.05-.1-.14-.1-.19,0-.17,0-.47.07-.19.06-.36.11-.5.17-.22.09-.71.34-.79.34-.13,0-.16-.04-.16-.12,0-.11.22-.23.25-.25l.47-.22c.2-.09.47-.25.65-.32.16-.06.47-.26.71-.35.31-.11.43-.22.72-.35.3-.14.54-.24.67-.26.11-.03.23-.07.35-.07.17,0,.34.06.48.24.08.1.12.17.12.23,0,.09-.08.17-.16.35-.11.27-.28.42-.47.61-.12.14-.17.31-.17.4,0,.06.04.09.1.1.02,0,.06,0,.1,0,.19,0,.37-.08.7-.13.2-.05.61-.17.91-.28.25-.09.66-.26.88-.35.4-.14.78-.31,1.16-.49.28-.14.67-.34.97-.45.24-.09.47-.26.68-.26.06,0,.12,0,.18.04.29.11.4.19.4.38,0,.09-.04.2-.13.35-.11.15-.25.26-.37.38-.1.09-.4.31-.4.49,0,.04.01.1.01.13,0,.09.02.16.1.23.06.08.29.16.6.16.13,0,.38-.06.56-.06.1,0,.47-.04.67-.08Z"/>
      <path class="cls-1" d="M108.9,6.33c.17-.06.37-.16.53-.22.16-.06.16-.09.25-.09.07,0,.14.03.14.11-.01.04-.01.14-.16.2,0,0-.11.07-.23.12-.24.09-.29.12-.62.25l-.41.16c-.23.09-.42.19-.68.27-.3.13-.54.23-.64.26-.18.08-.38.17-.55.24-.22.09-.43.18-.67.31-.44.24-.88.48-1.1.63-.23.14-.59.55-.96.9-.37.36-.77.8-.96,1.29-.2.5-.55.62-.74.96-.2.34-.49.79-1.31,1.28-.5.3-1.03.42-1.38.42-.24,0-.48-.08-.48-.27,0-.05,0-.22.01-.33.04-.29.13-.69.34-.85.2-.15.58-.82,1.13-1.2s.59-.53,1.16-1.03c.56-.48.92-.73,1.32-1.12.41-.4.78-.92.91-1.25.14-.34.35-.57.55-1.12.22-.55.43-.55.73-1.09.29-.53.73-.71,1.03-1,.31-.3.94-.48,1.33-.5h.12c.26,0,.61.11.73.27.11.16.22.45.22.75,0,.43-.43,1.03-1.01,1.03-.06,0-.11,0-.17-.03-.4-.15-.1-.36-.65-.36-.22,0-.46.05-.6.17-.25.21-.59.41-.74.75-.16.34-.22.33-.25.67-.02.25-.04.09-.04.27,0,.08.04.13.16.13.4,0,.34,0,1.03-.16.71-.17.31-.09.88-.25.13-.04.53-.16.8-.26.2-.08.38-.11.61-.2,0,0,.18-.07.36-.12Z"/>
      <path class="cls-1" d="M111.81,7.44c-.19.05-.32.08-.4.08h-.11c-.06,0-.25.05-.37.07-.14.03-.53.03-.7.03-.24,0-.56-.04-.71-.12-.13-.09-.3-.12-.36-.3-.06-.16-.11-.29-.11-.43,0-.08.01-.15.07-.24.17-.25.08-.32.61-.61.26-.15.28-.2.55-.39.28-.2.4-.29.79-.53.35-.25.72-.44,1.1-.62.3-.14.53-.25.85-.25.28,0,.66.05.7.3-.04.3-.16.37-.35.54-.2.18-.42.24-.68.39-.28.15-.59.28-.85.41-.26.12-.3.13-.5.26-.18.12-.19.06-.28.23-.04.08-.06.14-.06.2,0,.07.05.23.19.25.23.02.29.07.62.07.08,0,.68-.02.79-.03.42-.05.79-.09,1.32-.26,0,0,.18-.07.36-.12.17-.06.37-.16.53-.22.16-.06.16-.09.25-.09.07,0,.14.03.14.11-.01.04-.01.14-.16.2,0,0-.11.07-.23.12-.24.09-.28.09-.6.25l-.47.18c-.31.11-.53.22-1.02.32-.55.12-.6.2-.95.24Z"/>
      <path class="cls-1" d="M120.26,6.74c.31-.03.47-.07.84-.11l.44-.07s.34-.07.64-.09l1.01-.15c.25-.04.79-.14.91-.14h.05c.11,0,.22.03.22.11-.04.04-.06.13-.32.17,0,0-.72.12-.96.17-.41.07-.22.05-.8.16l-.86.17c-.22.04-.34.07-.53.09-.37.05-.89.24-1.27.29-.77.11-.89.15-1.12.21-.47.11-.74.13-1.09.13-.55,0-1.33-.22-1.33-.85,0-.32.04-.55.37-.77.14-.1.25-.17.25-.24,0-.08-.04-.1-.12-.1-.14,0-.38.1-.56.19-.19.11-.36.16-.44.21-.25.14-.35.15-.53.24-.22.1-.36.18-.41.18s-.16,0-.16-.09c0-.03.01-.08.04-.1.14-.16.23-.18.52-.31s.13-.1.49-.26c.08-.04.26-.15.41-.24.34-.2.53-.23.91-.51.29-.21.71-.35.96-.51.43-.27.74-.31,1.16-.31.64,0,.76.16.76.67,0,.27-.2.48-.71.73-.23.11-.47.28-.73.36-.36.1-.56.46-.56.64,0,.05,0,.17.02.23.05.12.29.17.59.17.13,0,.25,0,.35-.02.1-.02.52-.06.67-.09.23-.06.46-.09.91-.13Z"/>
    </g>
  </g>
</svg>